<svg xmlns="http://www.w3.org/2000/svg" xmlns:xlink="http://www.w3.org/1999/xlink" width="500" zoomAndPan="magnify" viewBox="0 0 375 374.999991" height="500" preserveAspectRatio="xMidYMid meet" version="1.0"><defs><g/><clipPath id="5a4670feb1"><path d="M 0 0 L 375 0 L 375 375 L 0 375 Z M 0 0 " clip-rule="nonzero"/></clipPath><clipPath id="4bccd095e9"><rect x="0" width="375" y="0" height="375"/></clipPath></defs><g transform="matrix(1, 0, 0, 1, 0, 0)"><g clip-path="url(#4bccd095e9)"><g clip-path="url(#5a4670feb1)"><path fill="#ffffff" d="M 397.210938 187.855469 C 397.210938 191.269531 397.128906 194.679688 396.960938 198.089844 C 396.792969 201.5 396.542969 204.902344 396.207031 208.296875 C 395.871094 211.695312 395.453125 215.082031 394.953125 218.457031 C 394.453125 221.835938 393.871094 225.195312 393.203125 228.542969 C 392.539062 231.890625 391.789062 235.222656 390.960938 238.53125 C 390.132812 241.84375 389.222656 245.132812 388.230469 248.398438 C 387.238281 251.664062 386.167969 254.902344 385.019531 258.117188 C 383.871094 261.332031 382.640625 264.515625 381.335938 267.667969 C 380.027344 270.824219 378.644531 273.941406 377.1875 277.027344 C 375.726562 280.113281 374.191406 283.160156 372.585938 286.171875 C 370.976562 289.179688 369.292969 292.152344 367.539062 295.078125 C 365.785156 298.007812 363.957031 300.890625 362.0625 303.726562 C 360.164062 306.566406 358.199219 309.355469 356.167969 312.097656 C 354.132812 314.835938 352.035156 317.527344 349.871094 320.167969 C 347.703125 322.804688 345.476562 325.390625 343.183594 327.917969 C 340.890625 330.445312 338.539062 332.917969 336.125 335.332031 C 333.710938 337.746094 331.238281 340.097656 328.710938 342.390625 C 326.179688 344.683594 323.597656 346.910156 320.957031 349.078125 C 318.320312 351.242188 315.628906 353.339844 312.890625 355.375 C 310.148438 357.40625 307.355469 359.371094 304.519531 361.269531 C 301.679688 363.164062 298.796875 364.992188 295.871094 366.746094 C 292.941406 368.5 289.972656 370.183594 286.964844 371.792969 C 283.953125 373.402344 280.90625 374.933594 277.820312 376.394531 C 274.734375 377.855469 271.613281 379.238281 268.460938 380.542969 C 265.308594 381.847656 262.125 383.078125 258.910156 384.226562 C 255.695312 385.375 252.457031 386.445312 249.191406 387.4375 C 245.925781 388.429688 242.636719 389.339844 239.324219 390.167969 C 236.011719 390.996094 232.683594 391.746094 229.335938 392.410156 C 225.988281 393.078125 222.625 393.660156 219.25 394.160156 C 215.875 394.660156 212.488281 395.078125 209.089844 395.414062 C 205.695312 395.75 202.289062 396 198.882812 396.167969 C 195.472656 396.335938 192.0625 396.417969 188.648438 396.417969 C 185.234375 396.417969 181.824219 396.335938 178.414062 396.167969 C 175.003906 396 171.601562 395.75 168.203125 395.414062 C 164.808594 395.078125 161.421875 394.660156 158.046875 394.160156 C 154.667969 393.660156 151.308594 393.078125 147.960938 392.410156 C 144.609375 391.746094 141.28125 390.996094 137.972656 390.167969 C 134.660156 389.339844 131.371094 388.429688 128.105469 387.4375 C 124.839844 386.445312 121.597656 385.375 118.386719 384.226562 C 115.171875 383.078125 111.988281 381.847656 108.832031 380.542969 C 105.679688 379.238281 102.5625 377.855469 99.476562 376.394531 C 96.390625 374.933594 93.34375 373.402344 90.332031 371.792969 C 87.320312 370.183594 84.351562 368.5 81.425781 366.746094 C 78.496094 364.992188 75.613281 363.164062 72.777344 361.269531 C 69.9375 359.371094 67.148438 357.40625 64.40625 355.375 C 61.664062 353.339844 58.976562 351.242188 56.335938 349.078125 C 53.699219 346.910156 51.113281 344.683594 48.585938 342.390625 C 46.054688 340.097656 43.585938 337.746094 41.171875 335.332031 C 38.757812 332.917969 36.40625 330.445312 34.113281 327.917969 C 31.820312 325.390625 29.589844 322.804688 27.425781 320.167969 C 25.261719 317.527344 23.160156 314.835938 21.128906 312.097656 C 19.09375 309.355469 17.128906 306.566406 15.234375 303.726562 C 13.335938 300.890625 11.511719 298.007812 9.757812 295.078125 C 8.003906 292.152344 6.320312 289.179688 4.710938 286.171875 C 3.101562 283.160156 1.566406 280.113281 0.109375 277.027344 C -1.351562 273.941406 -2.734375 270.824219 -4.039062 267.667969 C -5.347656 264.515625 -6.574219 261.332031 -7.722656 258.117188 C -8.875 254.902344 -9.945312 251.664062 -10.933594 248.398438 C -11.925781 245.132812 -12.835938 241.84375 -13.664062 238.53125 C -14.496094 235.222656 -15.242188 231.890625 -15.910156 228.542969 C -16.574219 225.195312 -17.15625 221.835938 -17.660156 218.457031 C -18.160156 215.082031 -18.578125 211.695312 -18.910156 208.296875 C -19.246094 204.902344 -19.496094 201.5 -19.664062 198.089844 C -19.832031 194.679688 -19.914062 191.269531 -19.914062 187.855469 C -19.914062 184.441406 -19.832031 181.03125 -19.664062 177.621094 C -19.496094 174.210938 -19.246094 170.808594 -18.910156 167.414062 C -18.578125 164.015625 -18.160156 160.628906 -17.660156 157.253906 C -17.15625 153.875 -16.574219 150.515625 -15.910156 147.167969 C -15.242188 143.820312 -14.496094 140.488281 -13.664062 137.179688 C -12.835938 133.867188 -11.925781 130.578125 -10.933594 127.3125 C -9.945312 124.046875 -8.875 120.804688 -7.722656 117.59375 C -6.574219 114.378906 -5.347656 111.195312 -4.039062 108.042969 C -2.734375 104.886719 -1.351562 101.769531 0.109375 98.683594 C 1.566406 95.597656 3.101562 92.550781 4.710938 89.539062 C 6.320312 86.527344 8.003906 83.558594 9.757812 80.632812 C 11.511719 77.703125 13.335938 74.820312 15.234375 71.984375 C 17.128906 69.144531 19.09375 66.355469 21.128906 63.613281 C 23.160156 60.871094 25.261719 58.183594 27.425781 55.542969 C 29.589844 52.90625 31.820312 50.320312 34.113281 47.792969 C 36.40625 45.261719 38.757812 42.792969 41.171875 40.378906 C 43.585938 37.964844 46.054688 35.613281 48.585938 33.320312 C 51.113281 31.027344 53.699219 28.800781 56.335938 26.632812 C 58.976562 24.46875 61.664062 22.367188 64.40625 20.335938 C 67.148438 18.300781 69.9375 16.335938 72.777344 14.441406 C 75.613281 12.542969 78.496094 10.71875 81.425781 8.964844 C 84.351562 7.210938 87.320312 5.527344 90.332031 3.917969 C 93.34375 2.308594 96.390625 0.777344 99.476562 -0.683594 C 102.5625 -2.144531 105.679688 -3.527344 108.832031 -4.832031 C 111.988281 -6.136719 115.171875 -7.367188 118.386719 -8.515625 C 121.597656 -9.667969 124.839844 -10.738281 128.105469 -11.726562 C 131.371094 -12.71875 134.660156 -13.628906 137.972656 -14.457031 C 141.28125 -15.289062 144.609375 -16.035156 147.960938 -16.699219 C 151.308594 -17.367188 154.667969 -17.949219 158.046875 -18.449219 C 161.421875 -18.953125 164.808594 -19.371094 168.203125 -19.703125 C 171.601562 -20.039062 175.003906 -20.289062 178.414062 -20.457031 C 181.824219 -20.625 185.234375 -20.707031 188.648438 -20.707031 C 192.0625 -20.707031 195.472656 -20.625 198.882812 -20.457031 C 202.289062 -20.289062 205.695312 -20.039062 209.089844 -19.703125 C 212.488281 -19.371094 215.875 -18.953125 219.25 -18.449219 C 222.625 -17.949219 225.988281 -17.367188 229.335938 -16.699219 C 232.683594 -16.035156 236.011719 -15.289062 239.324219 -14.457031 C 242.636719 -13.628906 245.925781 -12.71875 249.191406 -11.726562 C 252.457031 -10.738281 255.695312 -9.667969 258.910156 -8.515625 C 262.125 -7.367188 265.308594 -6.136719 268.460938 -4.832031 C 271.613281 -3.527344 274.734375 -2.144531 277.820312 -0.683594 C 280.90625 0.777344 283.953125 2.308594 286.964844 3.917969 C 289.972656 5.527344 292.941406 7.210938 295.871094 8.964844 C 298.796875 10.71875 301.679688 12.542969 304.519531 14.441406 C 307.355469 16.335938 310.148438 18.300781 312.890625 20.335938 C 315.628906 22.367188 318.320312 24.46875 320.957031 26.632812 C 323.597656 28.800781 326.179688 31.027344 328.710938 33.320312 C 331.238281 35.613281 333.710938 37.964844 336.125 40.378906 C 338.539062 42.792969 340.890625 45.261719 343.183594 47.792969 C 345.476562 50.320312 347.703125 52.90625 349.871094 55.542969 C 352.035156 58.183594 354.132812 60.871094 356.167969 63.613281 C 358.199219 66.355469 360.164062 69.144531 362.0625 71.984375 C 363.957031 74.820312 365.785156 77.703125 367.539062 80.632812 C 369.292969 83.558594 370.976562 86.527344 372.585938 89.539062 C 374.191406 92.550781 375.726562 95.597656 377.1875 98.683594 C 378.644531 101.769531 380.027344 104.886719 381.335938 108.042969 C 382.640625 111.195312 383.871094 114.378906 385.019531 117.59375 C 386.167969 120.804688 387.238281 124.046875 388.230469 127.3125 C 389.222656 130.578125 390.132812 133.867188 390.960938 137.179688 C 391.789062 140.488281 392.539062 143.820312 393.203125 147.167969 C 393.871094 150.515625 394.453125 153.875 394.953125 157.253906 C 395.453125 160.628906 395.871094 164.015625 396.207031 167.414062 C 396.542969 170.808594 396.792969 174.210938 396.960938 177.621094 C 397.128906 181.03125 397.210938 184.441406 397.210938 187.855469 Z M 397.210938 187.855469 " fill-opacity="1" fill-rule="nonzero"/></g><path fill="#ececec" d="M 199.996094 23.292969 C 199.871094 23.992188 200.339844 23.734375 200.769531 23.753906 C 243.144531 25.761719 287.292969 48.53125 315.160156 80.984375 C 337.585938 107.105469 354.960938 144.855469 356.164062 180.125 C 356.179688 180.566406 355.933594 181.050781 356.613281 180.921875 L 356.613281 203.308594 C 355.9375 203.179688 356.175781 203.660156 356.164062 204.105469 C 355.878906 213.609375 353.933594 224.203125 351.652344 233.410156 C 336.925781 292.933594 291.03125 339.347656 233.523438 355.332031 C 223.257812 358.1875 211.339844 360.550781 200.546875 360.9375 C 200.113281 360.953125 199.644531 360.703125 199.769531 361.402344 L 177.523438 361.402344 C 177.652344 360.707031 177.179688 360.949219 176.75 360.9375 C 140.683594 359.792969 99.777344 340.769531 73.59375 315.707031 C 44.597656 287.953125 22.609375 245.648438 21.132812 204.335938 C 21.117188 203.890625 21.359375 203.410156 20.683594 203.539062 L 20.683594 181.382812 C 21.359375 181.511719 21.117188 181.03125 21.132812 180.585938 C 21.867188 158.972656 29.605469 133.28125 39.519531 114.300781 C 62.089844 71.070312 100.863281 40.746094 146.871094 28.617188 C 156.585938 26.054688 167.605469 24.074219 177.652344 23.753906 C 178.082031 23.742188 178.550781 23.988281 178.425781 23.292969 Z M 309.148438 253.5625 C 310.378906 252.09375 307.707031 249.390625 306.582031 248.582031 C 302.78125 245.859375 299.089844 248.125 296.390625 251.1875 C 290.683594 257.671875 291.25 265.039062 296.625 271.496094 C 303.5 279.753906 311.394531 279.113281 319.199219 272.535156 C 331.949219 261.78125 329.425781 245.691406 319.984375 233.660156 C 309.679688 220.53125 288.066406 197.125 306.054688 181.261719 C 316.050781 172.445312 332.566406 178.507812 333.023438 192.347656 C 333.042969 193 332.898438 194.929688 332.683594 195.457031 C 332.480469 195.941406 329.265625 199.746094 328.734375 200.171875 C 324.535156 203.515625 318.191406 197.902344 320.425781 192.792969 C 321.328125 190.730469 328.140625 188.707031 322.433594 186.371094 C 316.230469 183.832031 312.917969 187.820312 311.964844 193.792969 C 310.589844 202.371094 313.789062 207.730469 321.476562 210.898438 C 335.175781 216.535156 339.453125 205.257812 341.273438 193.660156 C 343.890625 176.976562 335.667969 171.371094 322.886719 164.449219 C 312.277344 158.703125 301.195312 153.871094 290.480469 148.339844 C 289.375 147.5625 288.84375 145.523438 288.46875 144.175781 C 285.910156 134.976562 286.410156 125.046875 294.707031 119.292969 C 299.832031 115.738281 306.320312 113.988281 311.929688 117.539062 C 313.871094 118.769531 318.039062 122.75 317.988281 125.183594 C 317.945312 127.289062 317.355469 129.96875 317.074219 132.109375 C 316.941406 133.125 317.476562 134.605469 316.074219 134.773438 C 315.058594 134.898438 309.25 134.90625 308.523438 134.660156 C 307.582031 134.335938 307.839844 133.050781 307.570312 132.175781 C 307.382812 131.574219 306.769531 130.5 306.738281 130.011719 C 306.617188 128.113281 310.640625 124.589844 307.0625 123.464844 C 304.285156 122.589844 301.582031 123.773438 300.175781 126.292969 C 298.992188 128.410156 298.816406 134.292969 300.132812 136.347656 C 300.472656 136.875 301.375 137.453125 301.519531 137.925781 C 301.90625 139.199219 301.554688 140.597656 302.585938 141.90625 C 303.996094 143.683594 305.328125 142.683594 306.800781 143.117188 C 307.371094 143.285156 309.113281 144.851562 310.109375 145.253906 C 319.90625 149.230469 328.929688 136.609375 328.304688 127.492188 C 327.8125 120.277344 321.632812 110.074219 315.570312 106.417969 C 309.0625 102.492188 303.035156 103.308594 295.839844 103.835938 C 288.191406 104.394531 280.035156 105.875 272.464844 106.136719 C 267.503906 106.3125 258.417969 101.726562 254.71875 98.289062 C 252.96875 96.664062 248.671875 91.222656 248.324219 88.933594 C 247.539062 83.804688 249.222656 73.601562 254.003906 70.796875 C 257.648438 68.65625 264.160156 66.414062 268.257812 67.535156 C 272.960938 68.824219 280.515625 77.214844 275.160156 81.679688 C 272.546875 83.855469 269.558594 84.269531 267.0625 81.691406 C 264.714844 79.261719 266.5 77.949219 266.054688 75.570312 C 265.539062 72.800781 261.039062 76.214844 260.101562 77.289062 C 255.300781 82.792969 262.734375 90.65625 267.804688 92.46875 C 272.875 94.28125 277.964844 92.621094 282.21875 89.617188 C 290.179688 84.003906 289.832031 76.417969 285.425781 68.371094 C 277.675781 54.214844 262.539062 53.445312 249.507812 60.410156 C 248.460938 60.972656 245.511719 63.195312 244.773438 63.394531 C 243.75 63.671875 242.972656 63.195312 241.785156 63.785156 C 240.53125 64.402344 240.660156 65.378906 239.886719 66.21875 C 237.53125 68.78125 232.253906 71.078125 229.65625 73.714844 C 227.601562 73.855469 225.988281 74.113281 224.285156 75.351562 C 221.78125 77.167969 221.960938 77.503906 218.511719 77.960938 C 212.023438 78.824219 204.609375 78.136719 198.945312 74.570312 C 192.382812 70.4375 191.949219 58.253906 194.042969 51.445312 C 194.882812 48.714844 200.679688 44.972656 203.3125 44.351562 C 209.394531 42.914062 221.4375 47.089844 215.464844 54.988281 C 213.714844 57.304688 211.089844 58.445312 208.457031 56.722656 C 206.410156 55.382812 205.96875 49.070312 202.828125 53.082031 C 198.933594 58.054688 201.796875 63.113281 206.90625 65.238281 C 216.585938 69.269531 224.9375 63.144531 227.476562 53.472656 C 230.859375 40.570312 215.847656 31.289062 204.855469 32.320312 C 195.226562 33.222656 184.683594 43.539062 179.90625 51.695312 C 173.175781 63.179688 169.308594 78.4375 154.433594 82.078125 C 151.03125 82.914062 142.351562 83.269531 139.546875 81.109375 C 133.25 76.253906 130.394531 67.039062 132.242188 59.285156 C 132.546875 58.011719 134.007812 53.738281 134.941406 53.054688 C 135.441406 52.691406 139.898438 51.6875 140.851562 51.511719 C 144.234375 50.871094 148.109375 49.808594 150.433594 53.082031 C 153.089844 56.828125 150.464844 63.746094 145.566406 62.9375 C 143.554688 62.605469 140.273438 57.199219 139.617188 62.476562 C 138.59375 70.726562 145.125 72.183594 151.550781 70.578125 C 164.746094 67.285156 166.492188 44.253906 151.957031 40.4375 C 133.429688 35.578125 120.804688 49.886719 119.105469 67.71875 C 118.414062 74.984375 120.289062 83.628906 119.273438 90.28125 C 119.109375 91.367188 118.386719 92.808594 118.089844 93.910156 C 116.976562 98.035156 116.285156 101.867188 114.277344 105.6875 C 109.582031 114.625 98.238281 120.148438 89.097656 114.6875 C 86.96875 113.417969 80.8125 107.691406 80.46875 105.320312 C 79.824219 100.90625 80.457031 91.722656 84.046875 88.714844 C 86.734375 86.464844 88.976562 87.335938 92.03125 87.675781 C 93.695312 87.863281 94.800781 86.957031 95.523438 88.933594 C 96.101562 90.511719 96.714844 93.453125 96.304688 95.070312 C 95.894531 96.691406 93.433594 98.011719 91.976562 98.238281 C 89.535156 98.621094 85.558594 96.597656 87.695312 101.820312 C 90.589844 108.890625 99.710938 105.8125 103.375 100.949219 C 107.527344 95.441406 106.023438 88.886719 103.417969 83.136719 C 102.28125 80.621094 101.835938 79.402344 99.261719 78.171875 C 90.203125 73.839844 76.859375 78.941406 71.730469 87.601562 C 57.457031 111.71875 94.394531 136.042969 82.21875 161.152344 C 77.410156 171.070312 61.34375 175.632812 53.597656 166.839844 C 48.589844 161.152344 47.289062 154.929688 51.917969 148.488281 C 52.582031 147.5625 54.714844 144.953125 55.78125 144.96875 C 57.796875 144.996094 61.839844 145.875 63.027344 147.699219 C 64.65625 150.203125 62.402344 154.566406 60.34375 156.222656 C 59.210938 157.132812 57.082031 157.519531 57.933594 159.625 C 58.714844 161.5625 60.933594 161.367188 62.601562 161.308594 C 68.28125 161.101562 70.992188 159.21875 71.890625 153.308594 C 73.65625 141.707031 69.488281 135.253906 57.871094 134.757812 C 50.261719 134.4375 44.765625 136.742188 42.585938 144.671875 C 42.304688 145.6875 42.238281 147.175781 41.921875 148.148438 C 40.808594 151.582031 39.039062 153.523438 39.09375 157.722656 C 39.152344 161.921875 42.117188 167.601562 43.933594 171.226562 C 46.386719 176.117188 50.558594 180.148438 54.855469 183.320312 C 59.226562 186.550781 66.46875 189.851562 70.121094 193.257812 C 73.769531 196.660156 76.972656 202.871094 80.484375 206.632812 C 80.382812 207.757812 81.019531 208.476562 81.136719 209.410156 C 81.613281 213.308594 80.804688 218.277344 81.082031 222.292969 C 75.0625 230.484375 68.703125 236.648438 57.988281 232.492188 C 51.328125 229.90625 48.558594 224.59375 49.957031 217.324219 C 51.578125 208.890625 61.949219 211.207031 60.886719 219.089844 C 60.554688 221.535156 56.683594 223.199219 59.171875 224.8125 C 64.066406 227.988281 67.238281 222.636719 68.039062 218.359375 C 70.101562 207.359375 58.503906 197.867188 48.621094 202.105469 C 36.175781 207.445312 36.675781 225.652344 43.734375 235.359375 C 57.242188 253.949219 84.210938 243.363281 100.109375 257.308594 C 106.757812 263.140625 108.292969 268.789062 107.191406 277.726562 C 106.890625 280.15625 106.476562 280.972656 104.953125 282.8125 C 100.546875 288.125 93.148438 292.199219 86.171875 291.242188 C 85.210938 291.113281 83.835938 289.160156 83.15625 288.339844 C 81.4375 286.265625 77.851562 281.539062 77.773438 278.847656 C 77.71875 276.949219 78.796875 275.535156 80.109375 274.378906 C 83.355469 271.523438 86.699219 271.339844 88.253906 275.949219 C 88.84375 277.703125 88.425781 280.683594 90.890625 280.625 C 91.984375 280.597656 94.195312 279.382812 95.0625 278.660156 C 97.445312 276.675781 95.324219 275.679688 94.457031 273.503906 C 93.46875 271.035156 93.296875 267.640625 91.125 265.847656 C 90.558594 265.378906 85.707031 262.554688 85.070312 262.371094 C 83.226562 261.839844 81.253906 262.101562 79.542969 262.953125 C 76.363281 264.535156 71.167969 268.019531 69.125 270.945312 C 61.835938 281.375 72.546875 291.324219 78.757812 298.625 C 82.414062 302.921875 94.03125 302.472656 99.195312 301.597656 C 111.25 299.558594 121.449219 291.660156 134.007812 291.78125 C 138.464844 291.824219 146.835938 293.550781 150.449219 296.3125 C 150.984375 296.722656 154.4375 300.460938 154.832031 301.042969 C 156.117188 302.9375 156.511719 311.496094 156.152344 313.941406 C 154.621094 324.277344 143.101562 332.625 134.15625 325.050781 C 130.65625 322.089844 128.394531 318.507812 132.210938 314.625 C 134.613281 312.191406 137.566406 311.671875 139.890625 314.542969 C 141.347656 316.34375 141.640625 321.707031 144.832031 319.160156 C 145.5 318.625 147.226562 316.222656 147.464844 315.402344 C 148.929688 310.3125 142.957031 305.679688 138.871094 304.277344 C 127.109375 300.246094 114.796875 313.96875 120.410156 325.777344 C 125.4375 336.351562 137.851562 340.96875 148.585938 337.558594 C 153.53125 335.984375 159.644531 331.699219 163.890625 328.582031 C 168.371094 325.289062 170.605469 319.730469 174.039062 315.464844 C 181.40625 306.3125 190.925781 302.066406 202.578125 303.238281 C 205.933594 303.574219 207 303.773438 209.636719 305.910156 C 215.761719 310.875 218.792969 317.628906 216.277344 325.613281 C 213.609375 334.085938 207.335938 337.5 198.863281 335.4375 C 196.941406 334.96875 196.457031 334.367188 195.605469 332.550781 C 194.425781 330.023438 194.394531 328.167969 196.167969 325.960938 C 197.480469 324.328125 199.300781 323.015625 201.464844 323.304688 C 203.507812 323.574219 206.125 329.070312 208.082031 326.199219 C 211.445312 321.273438 205.183594 315.058594 200.527344 314.570312 C 191.917969 313.671875 183.234375 322.574219 183.84375 331.476562 C 184.6875 343.804688 193.703125 347.199219 204.351562 345.675781 C 230.847656 341.886719 228.9375 320.140625 236.898438 299.710938 C 238.21875 296.320312 240.660156 290.585938 242.816406 287.785156 C 244.664062 285.382812 246.925781 286.507812 248.992188 285.359375 C 250.675781 284.421875 250.21875 283.179688 252.6875 282.925781 C 256.113281 282.574219 259.699219 283.539062 263.140625 283.496094 C 265.785156 285.90625 270.210938 288.34375 272.582031 290.878906 C 274.40625 292.828125 274.792969 300.417969 274.59375 303.117188 C 274.507812 304.28125 273.777344 308.441406 273.039062 309.136719 C 268.359375 311.398438 263.652344 317.976562 258.75 312.238281 C 257.460938 310.726562 255.898438 308.054688 256.496094 305.996094 C 257.460938 302.675781 265.492188 301.03125 267.179688 297.816406 C 266.988281 297.472656 266.695312 297.535156 266.410156 297.449219 C 264.535156 296.871094 259.582031 295.96875 257.628906 295.855469 C 248.679688 295.320312 245.566406 306.289062 247.472656 313.671875 C 250.894531 326.933594 261.527344 327.816406 272.273438 322.664062 C 281.304688 318.332031 285.492188 311.902344 286.246094 301.707031 C 286.410156 299.476562 286.660156 296.273438 286.644531 294.082031 C 286.605469 288.765625 284.683594 287.554688 283.246094 283.15625 C 280.582031 274.992188 281.289062 266.121094 281.570312 257.664062 C 281.628906 255.917969 281.363281 253.769531 281.558594 252.109375 C 281.832031 249.765625 287.808594 243.398438 288.984375 240.8125 C 289.296875 240.464844 291.375 238.9375 291.730469 238.789062 C 292.417969 238.507812 296.878906 238.425781 298.070312 238.375 C 300.988281 238.25 303.914062 238.4375 306.835938 238.15625 C 311.289062 241.644531 317.351562 248.324219 317.308594 254.421875 C 317.265625 260.796875 307.960938 269.863281 302.910156 262.960938 C 301.378906 260.871094 301.910156 257.203125 303.570312 255.332031 C 304.988281 253.734375 308.457031 254.378906 309.144531 253.558594 Z M 309.148438 253.5625 " fill-opacity="1" fill-rule="nonzero"/><g fill="#262625" fill-opacity="1"><g transform="translate(76.671928, 237.410168)"><g><path d="M 77.046875 9.90625 L 2.421875 -164.234375 L 20.765625 -164.234375 L 77.046875 -31.875 L 133.078125 -164.234375 L 151.4375 -164.234375 Z M 77.046875 9.90625 "/></g></g></g><g fill="#ee742a" fill-opacity="1"><g transform="translate(67.244004, 334.634395)"><g><path d="M 113.875 13.671875 C 105.988281 15.648438 98.84375 14.421875 92.4375 9.984375 C 88.976562 7.515625 87.003906 3.941406 86.515625 -0.734375 C 86.265625 -4.429688 87.128906 -8.378906 89.109375 -12.578125 C 92.054688 -18.484375 95.75 -24.023438 100.1875 -29.203125 C 104.382812 -34.628906 109.066406 -39.617188 114.234375 -44.171875 C 119.410156 -48.734375 124.710938 -52.988281 130.140625 -56.9375 C 138.523438 -62.851562 147.03125 -68.582031 155.65625 -74.125 C 164.28125 -79.675781 173.148438 -84.789062 182.265625 -89.46875 C 185.222656 -90.707031 186.703125 -92.800781 186.703125 -95.75 C 186.703125 -97.726562 186.765625 -99.578125 186.890625 -101.296875 C 187.015625 -103.023438 186.953125 -104.753906 186.703125 -106.484375 C 186.460938 -111.160156 184.738281 -115.472656 181.53125 -119.421875 C 178.820312 -122.378906 175.617188 -124.472656 171.921875 -125.703125 C 168.222656 -126.691406 164.523438 -127.304688 160.828125 -127.546875 C 157.128906 -127.796875 153.304688 -127.675781 149.359375 -127.1875 C 142.460938 -126.6875 135.75 -125.570312 129.21875 -123.84375 C 122.6875 -122.125 116.21875 -120.28125 109.8125 -118.3125 C 101.175781 -116.09375 92.484375 -113.8125 83.734375 -111.46875 C 74.984375 -109.125 66.296875 -106.722656 57.671875 -104.265625 C 50.035156 -102.046875 42.273438 -100.566406 34.390625 -99.828125 C 32.660156 -99.578125 30.867188 -99.515625 29.015625 -99.640625 C 27.171875 -99.765625 25.265625 -99.828125 23.296875 -99.828125 C 19.835938 -100.066406 16.691406 -100.925781 13.859375 -102.40625 C 11.023438 -103.882812 8.253906 -105.734375 5.546875 -107.953125 C 4.316406 -108.941406 3.390625 -110.113281 2.765625 -111.46875 C 2.148438 -112.820312 1.597656 -114.363281 1.109375 -116.09375 C 0.117188 -119.050781 -0.25 -122.007812 0 -124.96875 C 0.25 -127.925781 0.742188 -130.882812 1.484375 -133.84375 C 2.460938 -137.78125 3.753906 -141.597656 5.359375 -145.296875 C 6.960938 -148.992188 8.628906 -152.566406 10.359375 -156.015625 C 15.773438 -166.859375 21.75 -177.269531 28.28125 -187.25 C 34.8125 -197.238281 42.019531 -206.796875 49.90625 -215.921875 C 64.207031 -232.679688 81.21875 -246.484375 100.9375 -257.328125 C 106.601562 -260.523438 112.394531 -263.234375 118.3125 -265.453125 C 124.226562 -267.671875 130.265625 -269.519531 136.421875 -271 C 139.378906 -271.5 142.335938 -271.992188 145.296875 -272.484375 C 148.253906 -272.972656 151.085938 -273.34375 153.796875 -273.59375 C 159.472656 -274.082031 164.648438 -273.710938 169.328125 -272.484375 C 181.410156 -269.273438 189.546875 -262.375 193.734375 -251.78125 C 196.929688 -243.894531 197.796875 -235.632812 196.328125 -227 C 195.335938 -221.582031 194.164062 -216.222656 192.8125 -210.921875 C 191.457031 -205.617188 189.671875 -200.503906 187.453125 -195.578125 C 184.242188 -187.941406 179.804688 -180.914062 174.140625 -174.5 C 172.410156 -172.289062 170.5625 -170.691406 168.59375 -169.703125 C 168.59375 -169.703125 168.222656 -169.703125 167.484375 -169.703125 C 166.992188 -169.953125 166.867188 -170.445312 167.109375 -171.1875 C 167.109375 -171.1875 167.359375 -171.429688 167.859375 -171.921875 C 173.523438 -178.078125 178.144531 -184.851562 181.71875 -192.25 C 185.289062 -199.644531 187.941406 -207.410156 189.671875 -215.546875 C 190.160156 -218.253906 190.648438 -220.960938 191.140625 -223.671875 C 191.640625 -226.390625 192.007812 -229.101562 192.25 -231.8125 C 192.988281 -240.4375 191.265625 -248.941406 187.078125 -257.328125 C 186.828125 -257.816406 186.457031 -258.429688 185.96875 -259.171875 C 185.476562 -259.910156 184.984375 -260.523438 184.484375 -261.015625 C 182.765625 -264.222656 179.804688 -266.195312 175.609375 -266.9375 C 172.898438 -267.675781 170.128906 -268.109375 167.296875 -268.234375 C 164.460938 -268.359375 161.691406 -268.171875 158.984375 -267.671875 C 136.546875 -264.472656 115.71875 -256.09375 96.5 -242.53125 C 86.882812 -235.875 78.070312 -228.414062 70.0625 -220.15625 C 62.050781 -211.90625 54.472656 -203.097656 47.328125 -193.734375 C 34.753906 -177.222656 24.03125 -159.476562 15.15625 -140.5 C 13.925781 -137.289062 12.753906 -134.144531 11.640625 -131.0625 C 10.535156 -127.976562 9.738281 -124.710938 9.25 -121.265625 C 9 -119.296875 8.992188 -117.320312 9.234375 -115.34375 C 9.484375 -113.375 9.859375 -111.40625 10.359375 -109.4375 C 11.097656 -106.96875 12.695312 -105.613281 15.15625 -105.375 C 21.070312 -104.382812 27.234375 -104.257812 33.640625 -105 C 39.804688 -105.488281 45.847656 -106.410156 51.765625 -107.765625 C 57.679688 -109.128906 63.472656 -110.671875 69.140625 -112.390625 C 78.503906 -114.859375 87.804688 -117.320312 97.046875 -119.78125 C 106.296875 -122.25 115.476562 -124.71875 124.59375 -127.1875 C 128.289062 -128.164062 131.925781 -129.023438 135.5 -129.765625 C 139.070312 -130.503906 142.707031 -131 146.40625 -131.25 C 149.363281 -131.5 152.320312 -131.5625 155.28125 -131.4375 C 158.238281 -131.3125 161.195312 -131.003906 164.15625 -130.515625 C 171.550781 -129.035156 178.453125 -125.335938 184.859375 -119.421875 C 190.035156 -114.492188 192.867188 -108.453125 193.359375 -101.296875 L 193.359375 -98.34375 C 193.609375 -97.113281 193.914062 -96.375 194.28125 -96.125 C 194.65625 -95.875 195.457031 -96 196.6875 -96.5 L 198.90625 -97.609375 C 207.78125 -101.304688 216.710938 -105.003906 225.703125 -108.703125 C 234.703125 -112.398438 243.765625 -115.726562 252.890625 -118.6875 C 256.828125 -120.15625 260.828125 -121.441406 264.890625 -122.546875 C 268.960938 -123.660156 272.972656 -124.710938 276.921875 -125.703125 C 279.140625 -126.191406 280.554688 -126.375 281.171875 -126.25 C 281.785156 -126.132812 282.957031 -125.085938 284.6875 -123.109375 C 284.1875 -122.128906 283.503906 -121.640625 282.640625 -121.640625 C 281.785156 -121.640625 280.988281 -121.515625 280.25 -121.265625 C 274.820312 -119.785156 269.519531 -118.304688 264.34375 -116.828125 C 259.164062 -115.347656 253.992188 -113.625 248.828125 -111.65625 C 240.441406 -108.445312 231.992188 -105.238281 223.484375 -102.03125 C 214.984375 -98.832031 206.664062 -95.265625 198.53125 -91.328125 L 196.328125 -90.21875 C 194.109375 -89.71875 192.628906 -87.988281 191.890625 -85.03125 C 190.648438 -79.613281 188.859375 -74.253906 186.515625 -68.953125 C 184.179688 -63.648438 181.65625 -58.535156 178.9375 -53.609375 C 174.75 -46.210938 170.3125 -39.0625 165.625 -32.15625 C 160.945312 -25.257812 155.773438 -18.609375 150.109375 -12.203125 C 147.390625 -8.992188 144.550781 -5.972656 141.59375 -3.140625 C 138.644531 -0.304688 135.441406 2.34375 131.984375 4.8125 C 129.273438 6.78125 126.441406 8.566406 123.484375 10.171875 C 120.523438 11.773438 117.320312 12.941406 113.875 13.671875 Z M 100.1875 10.359375 C 103.144531 10.359375 106.039062 9.925781 108.875 9.0625 C 111.71875 8.195312 114.367188 7.148438 116.828125 5.921875 C 123.234375 2.460938 128.78125 -1.601562 133.46875 -6.28125 C 137.65625 -9.976562 141.410156 -13.859375 144.734375 -17.921875 C 148.066406 -21.992188 151.335938 -26.25 154.546875 -30.6875 C 159.472656 -37.582031 164.15625 -44.601562 168.59375 -51.75 C 173.03125 -58.90625 176.847656 -66.300781 180.046875 -73.9375 C 180.546875 -75.175781 181.164062 -76.535156 181.90625 -78.015625 C 182.644531 -79.492188 183.132812 -81.09375 183.375 -82.8125 C 182.394531 -82.8125 181.472656 -82.625 180.609375 -82.25 C 179.742188 -81.882812 178.941406 -81.457031 178.203125 -80.96875 C 167.109375 -74.800781 156.632812 -68.269531 146.78125 -61.375 C 142.832031 -58.664062 138.882812 -55.890625 134.9375 -53.046875 C 131 -50.210938 127.304688 -47.195312 123.859375 -44 C 119.171875 -40.050781 114.789062 -35.859375 110.71875 -31.421875 C 106.65625 -26.984375 102.898438 -22.300781 99.453125 -17.375 C 98.222656 -15.40625 96.988281 -13.375 95.75 -11.28125 C 94.519531 -9.1875 93.660156 -7.03125 93.171875 -4.8125 C 91.941406 -0.863281 92.0625 2.832031 93.53125 6.28125 C 94.769531 9.238281 96.988281 10.597656 100.1875 10.359375 Z M 100.1875 10.359375 "/></g></g></g><g fill="#262625" fill-opacity="1"><g transform="translate(164.360135, 274.968994)"><g><path d="M 44.6875 -60.375 L 104.34375 -60.375 L 74.640625 -135.984375 Z M 146.609375 0 L 128.25 0 L 110.625 -44.6875 L 38.40625 -44.6875 L 20.765625 0 L 2.421875 0 L 74.640625 -175.59375 Z M 146.609375 0 "/></g></g></g></g></g></svg>